<svg width="152" height="135" viewBox="0 0 152 135" fill="none" xmlns="http://www.w3.org/2000/svg">
<path d="M10.1333 0H20.2667V8.45783H10.1333V0Z" fill="black"/>
<path d="M0 8.45783H10.1333V16.9157H0V8.45783Z" fill="black"/>
<path d="M10.1333 0H20.2667V8.45783H10.1333V0Z" fill="black"/>
<path d="M0 16.5904L10.1333 16.9157V25.0482H0V16.5904Z" fill="black"/>
<path d="M0 16.5904L10.1333 16.9157V25.0482H0V16.5904Z" fill="black"/>
<path d="M0 25.0482H10.1333V33.506H0V25.0482Z" fill="black"/>
<path d="M0 25.0482H10.1333V33.506H0V25.0482Z" fill="black"/>
<path d="M0 33.506H10.1333V41.9639H0V33.506Z" fill="black"/>
<path d="M0 33.506H10.1333V41.9639H0V33.506Z" fill="black"/>
<path d="M0 41.9639H10.1333V50.4217H0V41.9639Z" fill="black"/>
<path d="M0 41.9639H10.1333V50.4217H0V41.9639Z" fill="black"/>
<path d="M0 50.4217H10.1333V58.8795H0V50.4217Z" fill="black"/>
<path d="M0 50.4217H10.1333V58.8795H0V50.4217Z" fill="black"/>
<path d="M0 58.8795H10.1333V67.3373H0V58.8795Z" fill="black"/>
<path d="M0 58.8795H10.1333V67.3373H0V58.8795Z" fill="black"/>
<path d="M0 67.3373H10.1333V75.7952H0V67.3373Z" fill="black"/>
<path d="M0 67.3373H10.1333V75.7952H0V67.3373Z" fill="black"/>
<path d="M10.1333 75.7952H20.2667V84.253H10.1333V75.7952Z" fill="black"/>
<path d="M10.1333 75.7952H20.2667V84.253H10.1333V75.7952Z" fill="black"/>
<path d="M20.2667 75.7952H30.4V84.253H20.2667V75.7952Z" fill="black"/>
<path d="M20.2667 75.7952H30.4V84.253H20.2667V75.7952Z" fill="black"/>
<path d="M30.4 75.7952H40.5333V84.253H30.4V75.7952Z" fill="black"/>
<path d="M30.4 75.7952H40.5333V84.253H30.4V75.7952Z" fill="black"/>
<path d="M30.4 92.7108H40.5333V101.169H30.4V92.7108Z" fill="black"/>
<path d="M30.4 92.7108H40.5333V101.169H30.4V92.7108Z" fill="black"/>
<path d="M30.4 84.253H40.5333V92.7108H30.4V84.253Z" fill="black"/>
<path d="M30.4 84.253H40.5333V92.7108H30.4V84.253Z" fill="black"/>
<path d="M20.2667 101.169H30.4V109.627H20.2667V101.169Z" fill="black"/>
<path d="M20.2667 101.169H30.4V109.627H20.2667V101.169Z" fill="black"/>
<path d="M20.2667 109.627H30.4V118.084H20.2667V109.627Z" fill="black"/>
<path d="M20.2667 109.627H30.4V118.084H20.2667V109.627Z" fill="black"/>
<path d="M20.2667 118.084H30.4V126.542H20.2667V118.084Z" fill="black"/>
<path d="M20.2667 118.084H30.4V126.542H20.2667V118.084Z" fill="black"/>
<path d="M10.1333 126.542H20.2667V135H10.1333V126.542Z" fill="black"/>
<path d="M10.1333 126.542H20.2667V135H10.1333V126.542Z" fill="black"/>
<path d="M30.4 118.084H40.5333V126.542H30.4V118.084Z" fill="black"/>
<path d="M30.4 118.084H40.5333V126.542H30.4V118.084Z" fill="black"/>
<path d="M40.5333 109.627H50.6667V118.084H40.5333V109.627Z" fill="black"/>
<path d="M40.5333 109.627H50.6667V118.084H40.5333V109.627Z" fill="black"/>
<path d="M50.6667 101.169H60.8V109.627H50.6667V101.169Z" fill="black"/>
<path d="M50.6667 101.169H60.8V109.627H50.6667V101.169Z" fill="black"/>
<path d="M60.8 92.7108H70.9333V101.169H60.8V92.7108Z" fill="black"/>
<path d="M60.8 92.7108H70.9333V101.169H60.8V92.7108Z" fill="black"/>
<path d="M60.8 84.253H70.9333V92.7108H60.8V84.253Z" fill="black"/>
<path d="M60.8 84.253H70.9333V92.7108H60.8V84.253Z" fill="black"/>
<path d="M60.8 75.7952H70.9333V84.253H60.8V75.7952Z" fill="black"/>
<path d="M60.8 75.7952H70.9333V84.253H60.8V75.7952Z" fill="black"/>
<path d="M70.9333 75.7952H81.0667V84.253H70.9333V75.7952Z" fill="black"/>
<path d="M70.9333 75.7952H81.0667V84.253H70.9333V75.7952Z" fill="black"/>
<path d="M81.0667 75.7952H91.2V84.253H81.0667V75.7952Z" fill="black"/>
<path d="M81.0667 75.7952H91.2V84.253H81.0667V75.7952Z" fill="black"/>
<path d="M101.333 75.7952H111.467V84.253H101.333V75.7952Z" fill="black"/>
<path d="M101.333 75.7952H111.467V84.253H101.333V75.7952Z" fill="black"/>
<path d="M91.2 75.7952H101.333V84.253H91.2V75.7952Z" fill="black"/>
<path d="M91.2 75.7952H101.333V84.253H91.2V75.7952Z" fill="black"/>
<path d="M111.467 75.7952H121.6V84.253H111.467V75.7952Z" fill="black"/>
<path d="M111.467 75.7952H121.6V84.253H111.467V75.7952Z" fill="black"/>
<path d="M121.6 75.7952H131.733V84.253H121.6V75.7952Z" fill="black"/>
<path d="M121.6 75.7952H131.733V84.253H121.6V75.7952Z" fill="black"/>
<path d="M131.733 75.7952H141.867V84.253H131.733V75.7952Z" fill="black"/>
<path d="M131.733 75.7952H141.867V84.253H131.733V75.7952Z" fill="black"/>
<path d="M141.867 67.3373H152V75.7952H141.867V67.3373Z" fill="black"/>
<path d="M141.867 67.3373H152V75.7952H141.867V67.3373Z" fill="black"/>
<path d="M141.867 58.8795H152V67.3373H141.867V58.8795Z" fill="black"/>
<path d="M141.867 58.8795H152V67.3373H141.867V58.8795Z" fill="black"/>
<path d="M141.867 50.4217H152V58.8795H141.867V50.4217Z" fill="black"/>
<path d="M141.867 50.4217H152V58.8795H141.867V50.4217Z" fill="black"/>
<path d="M141.867 41.9639H152V50.4217H141.867V41.9639Z" fill="black"/>
<path d="M141.867 41.9639H152V50.4217H141.867V41.9639Z" fill="black"/>
<path d="M141.867 33.506H152V41.9639H141.867V33.506Z" fill="black"/>
<path d="M141.867 33.506H152V41.9639H141.867V33.506Z" fill="black"/>
<path d="M141.867 25.0482H152V33.506H141.867V25.0482Z" fill="black"/>
<path d="M141.867 25.0482H152V33.506H141.867V25.0482Z" fill="black"/>
<path d="M141.867 16.5904H152V25.0482H141.867V16.5904Z" fill="black"/>
<path d="M141.867 16.5904H152V25.0482H141.867V16.5904Z" fill="black"/>
<path d="M141.867 8.13253H152V16.5904H141.867V8.13253Z" fill="black"/>
<path d="M141.867 8.13253H152V16.5904H141.867V8.13253Z" fill="black"/>
<path d="M131.733 0H141.867V8.45783H131.733V0Z" fill="black"/>
<path d="M131.733 0H141.867V8.45783H131.733V0Z" fill="black"/>
<path d="M121.6 0H131.733V8.45783H121.6V0Z" fill="black"/>
<path d="M121.6 0H131.733V8.45783H121.6V0Z" fill="black"/>
<path d="M111.467 0H121.6V8.45783L111.467 8.78314L111.467 0Z" fill="black"/>
<path d="M111.467 0H121.6V8.45783L111.467 8.78314L111.467 0Z" fill="black"/>
<path d="M101.333 0H111.467L111.467 8.78314L101.333 8.45783V0Z" fill="black"/>
<path d="M101.333 0H111.467L111.467 8.78314L101.333 8.45783V0Z" fill="black"/>
<path d="M91.2 0H101.333V8.45783H91.2V0Z" fill="black"/>
<path d="M91.2 0H101.333V8.45783H91.2V0Z" fill="black"/>
<path d="M81.0667 0H91.2V8.45783H81.0667V0Z" fill="black"/>
<path d="M81.0667 0H91.2V8.45783H81.0667V0Z" fill="black"/>
<path d="M70.9333 0H81.0667V8.45783H70.9333V0Z" fill="black"/>
<path d="M70.9333 0H81.0667V8.45783H70.9333V0Z" fill="black"/>
<path d="M60.8 0H70.9333V8.45783H60.8V0Z" fill="black"/>
<path d="M60.8 0H70.9333V8.45783H60.8V0Z" fill="black"/>
<path d="M50.6667 0H60.8V8.45783H50.6667V0Z" fill="black"/>
<path d="M50.6667 0H60.8V8.45783H50.6667V0Z" fill="black"/>
<path d="M40.5333 0H50.6667V8.45783H40.5333V0Z" fill="black"/>
<path d="M40.5333 0H50.6667V8.45783H40.5333V0Z" fill="black"/>
<path d="M30.4 0H40.5333V8.45783H30.4V0Z" fill="black"/>
<path d="M30.4 0H40.5333V8.45783H30.4V0Z" fill="black"/>
<path d="M20.2667 0H30.4V8.45783H20.2667V0Z" fill="black"/>
<path d="M20.2667 0H30.4V8.45783H20.2667V0Z" fill="black"/>
<path d="M141.867 67.3373H152V75.7952H141.867V67.3373Z" fill="black"/>
<path d="M141.867 67.3373H152V75.7952H141.867V67.3373Z" fill="black"/>
<path d="M50.6667 92.7108H60.8V101.169H50.6667V92.7108Z" fill="white"/>
<path d="M50.6667 92.7108H60.8V101.169H50.6667V92.7108Z" fill="white"/>
<path d="M60.8 84.253H70.9333V92.7108H60.8V84.253Z" fill="black"/>
<path d="M60.8 84.253H70.9333V92.7108H60.8V84.253Z" fill="black"/>
<path d="M50.6667 75.7952H60.8V84.253H50.6667V75.7952Z" fill="white"/>
<path d="M50.6667 75.7952H60.8V84.253H50.6667V75.7952Z" fill="white"/>
<path d="M50.6667 84.253H60.8V92.7108H50.6667V84.253Z" fill="white"/>
<path d="M50.6667 84.253H60.8V92.7108H50.6667V84.253Z" fill="white"/>
<path d="M40.5333 75.7952H50.6667V84.253H40.5333V75.7952Z" fill="white"/>
<path d="M40.5333 75.7952H50.6667V84.253H40.5333V75.7952Z" fill="white"/>
<path d="M40.5333 84.253H50.6667V92.7108H40.5333V84.253Z" fill="white"/>
<path d="M40.5333 84.253H50.6667V92.7108H40.5333V84.253Z" fill="white"/>
<path d="M40.5333 92.7108H50.6667V101.169H40.5333V92.7108Z" fill="white"/>
<path d="M40.5333 92.7108H50.6667V101.169H40.5333V92.7108Z" fill="white"/>
<path d="M40.5333 101.169H50.6667V109.627H40.5333V101.169Z" fill="white"/>
<path d="M40.5333 101.169H50.6667V109.627H40.5333V101.169Z" fill="white"/>
<path d="M30.4 101.169H40.5333V109.627H30.4V101.169Z" fill="white"/>
<path d="M30.4 101.169H40.5333V109.627H30.4V101.169Z" fill="white"/>
<path d="M30.4 109.627H40.5333V118.084H30.4V109.627Z" fill="white"/>
<path d="M30.4 109.627H40.5333V118.084H30.4V109.627Z" fill="white"/>
<path d="M40.5333 67.3373H50.6667V75.7952H40.5333V67.3373Z" fill="white"/>
<path d="M40.5333 67.3373H50.6667V75.7952H40.5333V67.3373Z" fill="white"/>
<path d="M40.5333 58.8795H50.6667V67.3373H40.5333V58.8795Z" fill="white"/>
<path d="M40.5333 58.8795H50.6667V67.3373H40.5333V58.8795Z" fill="white"/>
<path d="M40.5333 50.4217H50.6667V58.8795H40.5333V50.4217Z" fill="white"/>
<path d="M40.5333 50.4217H50.6667V58.8795H40.5333V50.4217Z" fill="white"/>
<path d="M40.5333 41.9639H50.6667V50.4217H40.5333V41.9639Z" fill="white"/>
<path d="M40.5333 41.9639H50.6667V50.4217H40.5333V41.9639Z" fill="white"/>
<path d="M40.5333 33.506H50.6667V41.9639H40.5333V33.506Z" fill="white"/>
<path d="M40.5333 33.506H50.6667V41.9639H40.5333V33.506Z" fill="white"/>
<path d="M40.5333 25.0482H50.6667V33.506H40.5333V25.0482Z" fill="white"/>
<path d="M40.5333 25.0482H50.6667V33.506H40.5333V25.0482Z" fill="white"/>
<path d="M40.5333 16.5904H50.6667V25.0482H40.5333V16.5904Z" fill="white"/>
<path d="M40.5333 16.5904H50.6667V25.0482H40.5333V16.5904Z" fill="white"/>
<path d="M40.5333 8.45783H50.6667V16.9157H40.5333V8.45783Z" fill="white"/>
<path d="M40.5333 8.45783H50.6667V16.9157H40.5333V8.45783Z" fill="white"/>
<path d="M30.4 67.3373H40.5333V75.7952H30.4L30.4 67.3373Z" fill="white"/>
<path d="M30.4 67.3373H40.5333V75.7952H30.4L30.4 67.3373Z" fill="white"/>
<path d="M20.2667 67.3373H30.4L30.4 75.7952H20.2667V67.3373Z" fill="white"/>
<path d="M20.2667 67.3373H30.4L30.4 75.7952H20.2667V67.3373Z" fill="white"/>
<path d="M10.1333 67.3373H20.2667V75.7952H10.1333V67.3373Z" fill="white"/>
<path d="M10.1333 67.3373H20.2667V75.7952H10.1333V67.3373Z" fill="white"/>
<path d="M30.4 58.8795H40.5333V67.3373H30.4V58.8795Z" fill="white"/>
<path d="M30.4 58.8795H40.5333V67.3373H30.4V58.8795Z" fill="white"/>
<path d="M20.2667 58.8795H30.4V67.3373H20.2667V58.8795Z" fill="white"/>
<path d="M20.2667 58.8795H30.4V67.3373H20.2667V58.8795Z" fill="white"/>
<path d="M10.1333 58.8795H20.2667V67.3373H10.1333V58.8795Z" fill="white"/>
<path d="M10.1333 58.8795H20.2667V67.3373H10.1333V58.8795Z" fill="white"/>
<path d="M30.4 50.4217H40.5333V58.8795H30.4V50.4217Z" fill="white"/>
<path d="M30.4 50.4217H40.5333V58.8795H30.4V50.4217Z" fill="white"/>
<path d="M20.2667 50.4217H30.4V58.8795H20.2667L20.2667 50.4217Z" fill="white"/>
<path d="M20.2667 50.4217H30.4V58.8795H20.2667L20.2667 50.4217Z" fill="white"/>
<path d="M10.1333 50.4217H20.2667L20.2667 58.8795H10.1333V50.4217Z" fill="white"/>
<path d="M10.1333 50.4217H20.2667L20.2667 58.8795H10.1333V50.4217Z" fill="white"/>
<path d="M30.4 41.9639H40.5333V50.4217H30.4V41.9639Z" fill="white"/>
<path d="M30.4 41.9639H40.5333V50.4217H30.4V41.9639Z" fill="white"/>
<path d="M20.2667 41.9639H30.4V50.4217H20.2667V41.9639Z" fill="white"/>
<path d="M20.2667 41.9639H30.4V50.4217H20.2667V41.9639Z" fill="white"/>
<path d="M10.1333 41.9639L20.2667 41.9639V50.4217H10.1333V41.9639Z" fill="white"/>
<path d="M10.1333 41.9639L20.2667 41.9639V50.4217H10.1333V41.9639Z" fill="white"/>
<path d="M30.4 33.506H40.5333V41.9639H30.4V33.506Z" fill="white"/>
<path d="M30.4 33.506H40.5333V41.9639H30.4V33.506Z" fill="white"/>
<path d="M20.2667 33.506H30.4V41.9639H20.2667V33.506Z" fill="white"/>
<path d="M20.2667 33.506H30.4V41.9639H20.2667V33.506Z" fill="white"/>
<path d="M10.1333 33.506L20.2667 33.506V41.9639L10.1333 41.9639V33.506Z" fill="white"/>
<path d="M10.1333 33.506L20.2667 33.506V41.9639L10.1333 41.9639V33.506Z" fill="white"/>
<path d="M30.4 25.0482H40.5333V33.506H30.4V25.0482Z" fill="white"/>
<path d="M30.4 25.0482H40.5333V33.506H30.4V25.0482Z" fill="white"/>
<path d="M20.2667 25.0482H30.4V33.506H20.2667V25.0482Z" fill="white"/>
<path d="M20.2667 25.0482H30.4V33.506H20.2667V25.0482Z" fill="white"/>
<path d="M10.1333 25.0482L20.2667 25.0482V33.506L10.1333 33.506V25.0482Z" fill="white"/>
<path d="M10.1333 25.0482L20.2667 25.0482V33.506L10.1333 33.506V25.0482Z" fill="white"/>
<path d="M30.4 16.9157H40.5333V25.3735H30.4V16.9157Z" fill="white"/>
<path d="M30.4 16.9157H40.5333V25.3735H30.4V16.9157Z" fill="white"/>
<path d="M20.2667 16.9157L30.4 16.5904V25.0482H20.2667V16.9157Z" fill="white"/>
<path d="M20.2667 16.9157L30.4 16.5904V25.0482H20.2667V16.9157Z" fill="white"/>
<path d="M30.4 8.45783H40.5333V16.9157H30.4L30.4 8.45783Z" fill="white"/>
<path d="M30.4 8.45783H40.5333V16.9157H30.4L30.4 8.45783Z" fill="white"/>
<path d="M20.2667 8.45783H30.4L30.4 16.9157H20.2667L20.2667 8.45783Z" fill="white"/>
<path d="M20.2667 8.45783H30.4L30.4 16.9157H20.2667L20.2667 8.45783Z" fill="white"/>
<path d="M10.1333 8.45783H20.2667L20.2667 16.9157L10.1333 16.9157V8.45783Z" fill="white"/>
<path d="M10.1333 8.45783H20.2667L20.2667 16.9157L10.1333 16.9157V8.45783Z" fill="white"/>
<path d="M10.1333 16.9157L20.2667 16.9157V25.3735H10.1333L10.1333 16.9157Z" fill="white"/>
<path d="M10.1333 16.9157L20.2667 16.9157V25.3735H10.1333L10.1333 16.9157Z" fill="white"/>
<path d="M50.6667 67.3373H60.8V75.7952H50.6667V67.3373Z" fill="white"/>
<path d="M50.6667 67.3373H60.8V75.7952H50.6667V67.3373Z" fill="white"/>
<path d="M60.8 67.3373H70.9333V75.7952H60.8V67.3373Z" fill="white"/>
<path d="M60.8 67.3373H70.9333V75.7952H60.8V67.3373Z" fill="white"/>
<path d="M50.6667 58.8795H60.8V67.3373H50.6667V58.8795Z" fill="white"/>
<path d="M50.6667 58.8795H60.8V67.3373H50.6667V58.8795Z" fill="white"/>
<path d="M60.8 58.8795H70.9333V67.3373H60.8V58.8795Z" fill="white"/>
<path d="M60.8 58.8795H70.9333V67.3373H60.8V58.8795Z" fill="white"/>
<path d="M50.6667 50.4217H60.8L60.8 58.8795H50.6667V50.4217Z" fill="white"/>
<path d="M50.6667 50.4217H60.8L60.8 58.8795H50.6667V50.4217Z" fill="white"/>
<path d="M60.8 50.4217H70.9333V58.8795H60.8L60.8 50.4217Z" fill="white"/>
<path d="M60.8 50.4217H70.9333V58.8795H60.8L60.8 50.4217Z" fill="white"/>
<path d="M50.6667 41.9639H60.8V50.4217H50.6667V41.9639Z" fill="white"/>
<path d="M50.6667 41.9639H60.8V50.4217H50.6667V41.9639Z" fill="white"/>
<path d="M60.8 41.9639H70.9333V50.4217H60.8V41.9639Z" fill="white"/>
<path d="M60.8 41.9639H70.9333V50.4217H60.8V41.9639Z" fill="white"/>
<path d="M50.6667 33.506H60.8V41.9639H50.6667V33.506Z" fill="white"/>
<path d="M50.6667 33.506H60.8V41.9639H50.6667V33.506Z" fill="white"/>
<path d="M60.8 33.506H70.9333V41.9639H60.8V33.506Z" fill="white"/>
<path d="M60.8 33.506H70.9333V41.9639H60.8V33.506Z" fill="white"/>
<path d="M50.6667 25.0482H60.8V33.506H50.6667V25.0482Z" fill="white"/>
<path d="M50.6667 25.0482H60.8V33.506H50.6667V25.0482Z" fill="white"/>
<path d="M60.8 25.0482H70.9333V33.506H60.8V25.0482Z" fill="white"/>
<path d="M60.8 25.0482H70.9333V33.506H60.8V25.0482Z" fill="white"/>
<path d="M50.6667 16.5904H60.8V25.0482H50.6667V16.5904Z" fill="white"/>
<path d="M50.6667 16.5904H60.8V25.0482H50.6667V16.5904Z" fill="white"/>
<path d="M60.8 16.5904L70.9333 16.9157V25.0482H60.8V16.5904Z" fill="white"/>
<path d="M60.8 16.5904L70.9333 16.9157V25.0482H60.8V16.5904Z" fill="white"/>
<path d="M50.6667 8.45783H60.8L60.8 16.9157H50.6667V8.45783Z" fill="white"/>
<path d="M50.6667 8.45783H60.8L60.8 16.9157H50.6667V8.45783Z" fill="white"/>
<path d="M60.8 8.45783H70.9333V16.9157H60.8L60.8 8.45783Z" fill="white"/>
<path d="M60.8 8.45783H70.9333V16.9157H60.8L60.8 8.45783Z" fill="white"/>
<path d="M70.9333 8.45783H81.0667V16.9157H70.9333V8.45783Z" fill="white"/>
<path d="M70.9333 8.45783H81.0667V16.9157H70.9333V8.45783Z" fill="white"/>
<path d="M70.9333 16.9157H81.0667V25.0482H70.9333V16.9157Z" fill="white"/>
<path d="M70.9333 16.9157H81.0667V25.0482H70.9333V16.9157Z" fill="white"/>
<path d="M70.9333 25.0482H81.0667V33.506H70.9333V25.0482Z" fill="white"/>
<path d="M70.9333 25.0482H81.0667V33.506H70.9333V25.0482Z" fill="white"/>
<path d="M70.9333 33.506H81.0667V41.9639H70.9333V33.506Z" fill="white"/>
<path d="M70.9333 33.506H81.0667V41.9639H70.9333V33.506Z" fill="white"/>
<path d="M70.9333 41.9639H81.0667V50.4217H70.9333V41.9639Z" fill="white"/>
<path d="M70.9333 41.9639H81.0667V50.4217H70.9333V41.9639Z" fill="white"/>
<path d="M70.9333 50.4217H81.0667V58.8795H70.9333V50.4217Z" fill="white"/>
<path d="M70.9333 50.4217H81.0667V58.8795H70.9333V50.4217Z" fill="white"/>
<path d="M70.9333 58.8795H81.0667V67.3373H70.9333V58.8795Z" fill="white"/>
<path d="M70.9333 58.8795H81.0667V67.3373H70.9333V58.8795Z" fill="white"/>
<path d="M70.9333 67.3373H81.0667V75.7952H70.9333V67.3373Z" fill="white"/>
<path d="M70.9333 67.3373H81.0667V75.7952H70.9333V67.3373Z" fill="white"/>
<path d="M81.0667 67.3373H91.2V75.7952H81.0667V67.3373Z" fill="white"/>
<path d="M81.0667 67.3373H91.2V75.7952H81.0667V67.3373Z" fill="white"/>
<path d="M81.0667 58.8795H91.2V67.3373H81.0667V58.8795Z" fill="white"/>
<path d="M81.0667 58.8795H91.2V67.3373H81.0667V58.8795Z" fill="white"/>
<path d="M81.0667 50.4217H91.2V58.8795H81.0667V50.4217Z" fill="white"/>
<path d="M81.0667 50.4217H91.2V58.8795H81.0667V50.4217Z" fill="white"/>
<path d="M81.0667 41.9639H91.2V50.4217H81.0667V41.9639Z" fill="white"/>
<path d="M81.0667 41.9639H91.2V50.4217H81.0667V41.9639Z" fill="white"/>
<path d="M81.0667 33.506H91.2V41.9639H81.0667V33.506Z" fill="white"/>
<path d="M81.0667 33.506H91.2V41.9639H81.0667V33.506Z" fill="white"/>
<path d="M81.0667 25.0482H91.2V33.506H81.0667V25.0482Z" fill="white"/>
<path d="M81.0667 25.0482H91.2V33.506H81.0667V25.0482Z" fill="white"/>
<path d="M81.0667 16.9157L91.2 16.5904V25.0482H81.0667V16.9157Z" fill="white"/>
<path d="M81.0667 16.9157L91.2 16.5904V25.0482H81.0667V16.9157Z" fill="white"/>
<path d="M81.0667 8.45783H91.2V16.9157H81.0667V8.45783Z" fill="white"/>
<path d="M81.0667 8.45783H91.2V16.9157H81.0667V8.45783Z" fill="white"/>
<path d="M91.2 67.3373H101.333V75.7952H91.2V67.3373Z" fill="white"/>
<path d="M91.2 67.3373H101.333V75.7952H91.2V67.3373Z" fill="white"/>
<path d="M91.2 58.8795H101.333L101.333 67.3373H91.2V58.8795Z" fill="white"/>
<path d="M91.2 58.8795H101.333L101.333 67.3373H91.2V58.8795Z" fill="white"/>
<path d="M91.2 50.4217H101.333V58.8795H91.2V50.4217Z" fill="white"/>
<path d="M91.2 50.4217H101.333V58.8795H91.2V50.4217Z" fill="white"/>
<path d="M91.2 41.9639H101.333V50.4217H91.2V41.9639Z" fill="white"/>
<path d="M91.2 41.9639H101.333V50.4217H91.2V41.9639Z" fill="white"/>
<path d="M91.2 33.506H101.333V41.9639H91.2V33.506Z" fill="white"/>
<path d="M91.2 33.506H101.333V41.9639H91.2V33.506Z" fill="white"/>
<path d="M91.2 25.0482H101.333V33.506H91.2V25.0482Z" fill="white"/>
<path d="M91.2 25.0482H101.333V33.506H91.2V25.0482Z" fill="white"/>
<path d="M91.2 16.5904L101.333 16.9157L101.333 25.0482H91.2V16.5904Z" fill="white"/>
<path d="M91.2 16.5904L101.333 16.9157L101.333 25.0482H91.2V16.5904Z" fill="white"/>
<path d="M91.2 8.45783H101.333V16.9157H91.2V8.45783Z" fill="white"/>
<path d="M91.2 8.45783H101.333V16.9157H91.2V8.45783Z" fill="white"/>
<path d="M101.333 67.3373H111.467L111.467 75.7952H101.333V67.3373Z" fill="white"/>
<path d="M101.333 67.3373H111.467L111.467 75.7952H101.333V67.3373Z" fill="white"/>
<path d="M111.467 67.3373H121.6V75.7952H111.467L111.467 67.3373Z" fill="white"/>
<path d="M111.467 67.3373H121.6V75.7952H111.467L111.467 67.3373Z" fill="white"/>
<path d="M101.333 58.8795H111.467V67.3373H101.333L101.333 58.8795Z" fill="white"/>
<path d="M101.333 58.8795H111.467V67.3373H101.333L101.333 58.8795Z" fill="white"/>
<path d="M111.467 58.8795H121.6L121.6 67.3373H111.467V58.8795Z" fill="white"/>
<path d="M111.467 58.8795H121.6L121.6 67.3373H111.467V58.8795Z" fill="white"/>
<path d="M121.6 58.8795H131.733V67.3373H121.6L121.6 58.8795Z" fill="white"/>
<path d="M121.6 58.8795H131.733V67.3373H121.6L121.6 58.8795Z" fill="white"/>
<path d="M121.6 67.3373H131.733V75.7952H121.6V67.3373Z" fill="white"/>
<path d="M121.6 67.3373H131.733V75.7952H121.6V67.3373Z" fill="white"/>
<path d="M131.733 67.3373H141.867V75.7952H131.733V67.3373Z" fill="white"/>
<path d="M131.733 67.3373H141.867V75.7952H131.733V67.3373Z" fill="white"/>
<path d="M131.733 58.8795H141.867V67.3373H131.733V58.8795Z" fill="white"/>
<path d="M131.733 58.8795H141.867V67.3373H131.733V58.8795Z" fill="white"/>
<path d="M101.333 50.4217H111.467V58.8795H101.333V50.4217Z" fill="white"/>
<path d="M101.333 50.4217H111.467V58.8795H101.333V50.4217Z" fill="white"/>
<path d="M111.467 50.4217H121.6V58.8795H111.467V50.4217Z" fill="white"/>
<path d="M111.467 50.4217H121.6V58.8795H111.467V50.4217Z" fill="white"/>
<path d="M121.6 50.4217H131.733V58.8795H121.6V50.4217Z" fill="white"/>
<path d="M121.6 50.4217H131.733V58.8795H121.6V50.4217Z" fill="white"/>
<path d="M131.733 50.4217H141.867V58.8795H131.733V50.4217Z" fill="white"/>
<path d="M131.733 50.4217H141.867V58.8795H131.733V50.4217Z" fill="white"/>
<path d="M101.333 41.9639H111.467V50.4217H101.333V41.9639Z" fill="white"/>
<path d="M101.333 41.9639H111.467V50.4217H101.333V41.9639Z" fill="white"/>
<path d="M111.467 41.9639H121.6V50.4217H111.467V41.9639Z" fill="white"/>
<path d="M111.467 41.9639H121.6V50.4217H111.467V41.9639Z" fill="white"/>
<path d="M121.6 41.9639H131.733L131.733 50.4217H121.6V41.9639Z" fill="white"/>
<path d="M121.6 41.9639H131.733L131.733 50.4217H121.6V41.9639Z" fill="white"/>
<path d="M131.733 41.9639L141.867 41.9639V50.4217H131.733L131.733 41.9639Z" fill="white"/>
<path d="M131.733 41.9639L141.867 41.9639V50.4217H131.733L131.733 41.9639Z" fill="white"/>
<path d="M101.333 33.506H111.467V41.9639H101.333V33.506Z" fill="white"/>
<path d="M101.333 33.506H111.467V41.9639H101.333V33.506Z" fill="white"/>
<path d="M111.467 33.506H121.6V41.9639H111.467V33.506Z" fill="white"/>
<path d="M111.467 33.506H121.6V41.9639H111.467V33.506Z" fill="white"/>
<path d="M101.333 25.0482H111.467V33.506H101.333V25.0482Z" fill="white"/>
<path d="M101.333 25.0482H111.467V33.506H101.333V25.0482Z" fill="white"/>
<path d="M111.467 25.0482H121.6V33.506H111.467V25.0482Z" fill="white"/>
<path d="M111.467 25.0482H121.6V33.506H111.467V25.0482Z" fill="white"/>
<path d="M121.6 33.506H131.733V41.9639H121.6V33.506Z" fill="white"/>
<path d="M121.6 33.506H131.733V41.9639H121.6V33.506Z" fill="white"/>
<path d="M121.6 25.0482H131.733V33.506H121.6V25.0482Z" fill="white"/>
<path d="M121.6 25.0482H131.733V33.506H121.6V25.0482Z" fill="white"/>
<path d="M131.733 25.0482L141.867 25.0482V33.506L131.733 33.506V25.0482Z" fill="white"/>
<path d="M131.733 25.0482L141.867 25.0482V33.506L131.733 33.506V25.0482Z" fill="white"/>
<path d="M131.733 33.506L141.867 33.506V41.9639L131.733 41.9639V33.506Z" fill="white"/>
<path d="M131.733 33.506L141.867 33.506V41.9639L131.733 41.9639V33.506Z" fill="white"/>
<path d="M101.333 16.9157L111.467 17.241L111.467 25.0482H101.333L101.333 16.9157Z" fill="white"/>
<path d="M101.333 16.9157L111.467 17.241L111.467 25.0482H101.333L101.333 16.9157Z" fill="white"/>
<path d="M101.333 8.45783L111.467 8.78314L111.467 17.241L101.333 16.9157V8.45783Z" fill="white"/>
<path d="M101.333 8.45783L111.467 8.78314L111.467 17.241L101.333 16.9157V8.45783Z" fill="white"/>
<path d="M111.467 17.241L121.6 16.9157L121.6 25.0482H111.467L111.467 17.241Z" fill="white"/>
<path d="M111.467 17.241L121.6 16.9157L121.6 25.0482H111.467L111.467 17.241Z" fill="white"/>
<path d="M111.467 8.78314L121.6 8.45783V16.9157L111.467 17.241L111.467 8.78314Z" fill="white"/>
<path d="M111.467 8.78314L121.6 8.45783V16.9157L111.467 17.241L111.467 8.78314Z" fill="white"/>
<path d="M121.6 8.45783H131.733V16.9157H121.6V8.45783Z" fill="white"/>
<path d="M121.6 8.45783H131.733V16.9157H121.6V8.45783Z" fill="white"/>
<path d="M131.733 8.45783H141.867V16.9157H131.733V8.45783Z" fill="white"/>
<path d="M131.733 8.45783H141.867V16.9157H131.733V8.45783Z" fill="white"/>
<path d="M121.6 16.9157L131.733 16.5904V25.0482H121.6L121.6 16.9157Z" fill="white"/>
<path d="M121.6 16.9157L131.733 16.5904V25.0482H121.6L121.6 16.9157Z" fill="white"/>
<path d="M131.733 16.9157H141.867V25.3735H131.733V16.9157Z" fill="white"/>
<path d="M131.733 16.9157H141.867V25.3735H131.733V16.9157Z" fill="white"/>
</svg>
