<svg width="152" height="135" viewBox="0 0 152 135" fill="none" xmlns="http://www.w3.org/2000/svg">
<path d="M10.1333 0H20.2667V8.45783H10.1333V0Z" fill="black"/>
<path d="M0 8.45783H10.1333V16.9157H0V8.45783Z" fill="black"/>
<path d="M10.1333 0H20.2667V8.45783H10.1333V0Z" fill="black"/>
<path d="M0 16.5904H10.1333V25.0482H0V16.5904Z" fill="black"/>
<path d="M0 16.5904H10.1333V25.0482H0V16.5904Z" fill="black"/>
<path d="M0 25.0482H10.1333V33.506H0V25.0482Z" fill="black"/>
<path d="M0 25.0482H10.1333V33.506H0V25.0482Z" fill="black"/>
<path d="M0 33.506H10.1333V41.9639H0V33.506Z" fill="black"/>
<path d="M0 33.506H10.1333V41.9639H0V33.506Z" fill="black"/>
<path d="M0 41.9639H10.1333V50.4217H0V41.9639Z" fill="black"/>
<path d="M0 41.9639H10.1333V50.4217H0V41.9639Z" fill="black"/>
<path d="M0 50.4217H10.1333V58.8795H0V50.4217Z" fill="black"/>
<path d="M0 50.4217H10.1333V58.8795H0V50.4217Z" fill="black"/>
<path d="M0 58.8795H10.1333V67.3373H0V58.8795Z" fill="black"/>
<path d="M0 58.8795H10.1333V67.3373H0V58.8795Z" fill="black"/>
<path d="M0 67.3373H10.1333V75.7952H0V67.3373Z" fill="black"/>
<path d="M0 67.3373H10.1333V75.7952H0V67.3373Z" fill="black"/>
<path d="M10.1333 75.7952H20.2667V84.253H10.1333V75.7952Z" fill="black"/>
<path d="M10.1333 75.7952H20.2667V84.253H10.1333V75.7952Z" fill="black"/>
<path d="M20.2667 75.7952H30.4V84.253H20.2667V75.7952Z" fill="black"/>
<path d="M20.2667 75.7952H30.4V84.253H20.2667V75.7952Z" fill="black"/>
<path d="M30.4 75.7952H40.5333V84.253H30.4V75.7952Z" fill="black"/>
<path d="M30.4 75.7952H40.5333V84.253H30.4V75.7952Z" fill="black"/>
<path d="M30.4 92.7108H40.5333V101.169H30.4V92.7108Z" fill="black"/>
<path d="M30.4 92.7108H40.5333V101.169H30.4V92.7108Z" fill="black"/>
<path d="M30.4 84.253H40.5333V92.7108H30.4V84.253Z" fill="black"/>
<path d="M30.4 84.253H40.5333V92.7108H30.4V84.253Z" fill="black"/>
<path d="M20.2667 101.169H30.4V109.627H20.2667V101.169Z" fill="black"/>
<path d="M20.2667 101.169H30.4V109.627H20.2667V101.169Z" fill="black"/>
<path d="M20.2667 109.627H30.4V118.084H20.2667V109.627Z" fill="black"/>
<path d="M20.2667 109.627H30.4V118.084H20.2667V109.627Z" fill="black"/>
<path d="M20.2667 118.084H30.4V126.542H20.2667V118.084Z" fill="black"/>
<path d="M20.2667 118.084H30.4V126.542H20.2667V118.084Z" fill="black"/>
<path d="M10.1333 126.542H20.2667V135H10.1333V126.542Z" fill="black"/>
<path d="M10.1333 126.542H20.2667V135H10.1333V126.542Z" fill="black"/>
<path d="M30.4 118.084H40.5333V126.542H30.4V118.084Z" fill="black"/>
<path d="M30.4 118.084H40.5333V126.542H30.4V118.084Z" fill="black"/>
<path d="M40.5333 109.627H50.6667V118.084H40.5333V109.627Z" fill="black"/>
<path d="M40.5333 109.627H50.6667V118.084H40.5333V109.627Z" fill="black"/>
<path d="M50.6667 101.169H60.8V109.627H50.6667V101.169Z" fill="black"/>
<path d="M50.6667 101.169H60.8V109.627H50.6667V101.169Z" fill="black"/>
<path d="M60.8 92.7108H70.9333V101.169H60.8V92.7108Z" fill="black"/>
<path d="M60.8 92.7108H70.9333V101.169H60.8V92.7108Z" fill="black"/>
<path d="M60.8 84.253H70.9333V92.7108H60.8V84.253Z" fill="black"/>
<path d="M60.8 84.253H70.9333V92.7108H60.8V84.253Z" fill="black"/>
<path d="M60.8 75.7952H70.9333V84.253H60.8V75.7952Z" fill="black"/>
<path d="M60.8 75.7952H70.9333V84.253H60.8V75.7952Z" fill="black"/>
<path d="M70.9333 75.7952H81.0667V84.253H70.9333V75.7952Z" fill="black"/>
<path d="M70.9333 75.7952H81.0667V84.253H70.9333V75.7952Z" fill="black"/>
<path d="M81.0667 75.7952H91.2V84.253H81.0667V75.7952Z" fill="black"/>
<path d="M81.0667 75.7952H91.2V84.253H81.0667V75.7952Z" fill="black"/>
<path d="M101.333 75.7952H111.467V84.253H101.333V75.7952Z" fill="black"/>
<path d="M101.333 75.7952H111.467V84.253H101.333V75.7952Z" fill="black"/>
<path d="M91.2 75.7952H101.333V84.253H91.2V75.7952Z" fill="black"/>
<path d="M91.2 75.7952H101.333V84.253H91.2V75.7952Z" fill="black"/>
<path d="M111.467 75.7952H121.6V84.253H111.467V75.7952Z" fill="black"/>
<path d="M111.467 75.7952H121.6V84.253H111.467V75.7952Z" fill="black"/>
<path d="M121.6 75.7952H131.733V84.253H121.6V75.7952Z" fill="black"/>
<path d="M121.6 75.7952H131.733V84.253H121.6V75.7952Z" fill="black"/>
<path d="M131.733 75.7952H141.867V84.253H131.733V75.7952Z" fill="black"/>
<path d="M131.733 75.7952H141.867V84.253H131.733V75.7952Z" fill="black"/>
<path d="M141.867 67.3373H152V75.7952H141.867V67.3373Z" fill="black"/>
<path d="M141.867 67.3373H152V75.7952H141.867V67.3373Z" fill="black"/>
<path d="M141.867 58.8795H152V67.3373H141.867V58.8795Z" fill="black"/>
<path d="M141.867 58.8795H152V67.3373H141.867V58.8795Z" fill="black"/>
<path d="M141.867 50.4217H152V58.8795H141.867V50.4217Z" fill="black"/>
<path d="M141.867 50.4217H152V58.8795H141.867V50.4217Z" fill="black"/>
<path d="M141.867 41.9639H152V50.4217H141.867V41.9639Z" fill="black"/>
<path d="M141.867 41.9639H152V50.4217H141.867V41.9639Z" fill="black"/>
<path d="M141.867 33.506H152V41.9639H141.867V33.506Z" fill="black"/>
<path d="M141.867 33.506H152V41.9639H141.867V33.506Z" fill="black"/>
<path d="M141.867 25.0482H152V33.506H141.867V25.0482Z" fill="black"/>
<path d="M141.867 25.0482H152V33.506H141.867V25.0482Z" fill="black"/>
<path d="M141.867 16.5904H152V25.0482H141.867V16.5904Z" fill="black"/>
<path d="M141.867 16.5904H152V25.0482H141.867V16.5904Z" fill="black"/>
<path d="M141.867 8.13253H152V16.5904H141.867V8.13253Z" fill="black"/>
<path d="M141.867 8.13253H152V16.5904H141.867V8.13253Z" fill="black"/>
<path d="M131.733 0H141.867V8.45783H131.733V0Z" fill="black"/>
<path d="M131.733 0H141.867V8.45783H131.733V0Z" fill="black"/>
<path d="M121.6 0H131.733V8.45783H121.6V0Z" fill="black"/>
<path d="M121.6 0H131.733V8.45783H121.6V0Z" fill="black"/>
<path d="M111.467 0H121.6V8.45783H111.467V0Z" fill="black"/>
<path d="M111.467 0H121.6V8.45783H111.467V0Z" fill="black"/>
<path d="M101.333 0H111.467V8.45783H101.333V0Z" fill="black"/>
<path d="M101.333 0H111.467V8.45783H101.333V0Z" fill="black"/>
<path d="M91.2 0H101.333V8.45783H91.2V0Z" fill="black"/>
<path d="M91.2 0H101.333V8.45783H91.2V0Z" fill="black"/>
<path d="M81.0667 0H91.2V8.45783H81.0667V0Z" fill="black"/>
<path d="M81.0667 0H91.2V8.45783H81.0667V0Z" fill="black"/>
<path d="M70.9333 0H81.0667V8.45783H70.9333V0Z" fill="black"/>
<path d="M70.9333 0H81.0667V8.45783H70.9333V0Z" fill="black"/>
<path d="M60.8 0H70.9333V8.45783H60.8V0Z" fill="black"/>
<path d="M60.8 0H70.9333V8.45783H60.8V0Z" fill="black"/>
<path d="M50.6667 0H60.8V8.45783H50.6667V0Z" fill="black"/>
<path d="M50.6667 0H60.8V8.45783H50.6667V0Z" fill="black"/>
<path d="M40.5333 0H50.6667V8.45783H40.5333V0Z" fill="black"/>
<path d="M40.5333 0H50.6667V8.45783H40.5333V0Z" fill="black"/>
<path d="M30.4 0H40.5333V8.45783H30.4V0Z" fill="black"/>
<path d="M30.4 0H40.5333V8.45783H30.4V0Z" fill="black"/>
<path d="M20.2667 0H30.4V8.45783H20.2667V0Z" fill="black"/>
<path d="M20.2667 0H30.4V8.45783H20.2667V0Z" fill="black"/>
<path d="M141.867 67.3373H152V75.7952H141.867V67.3373Z" fill="black"/>
<path d="M141.867 67.3373H152V75.7952H141.867V67.3373Z" fill="black"/>
<path d="M50.6667 92.7108H60.8V101.169H50.6667V92.7108Z" fill="white"/>
<path d="M50.6667 92.7108H60.8V101.169H50.6667V92.7108Z" fill="white"/>
<path d="M60.8 84.253H70.9333V92.7108H60.8V84.253Z" fill="black"/>
<path d="M60.8 84.253H70.9333V92.7108H60.8V84.253Z" fill="black"/>
<path d="M50.6667 75.7952H60.8V84.253H50.6667V75.7952Z" fill="white"/>
<path d="M50.6667 75.7952H60.8V84.253H50.6667V75.7952Z" fill="white"/>
<path d="M50.6667 84.253H60.8V92.7108H50.6667V84.253Z" fill="white"/>
<path d="M50.6667 84.253H60.8V92.7108H50.6667V84.253Z" fill="white"/>
<path d="M40.5333 75.7952H50.6667V84.253H40.5333V75.7952Z" fill="white"/>
<path d="M40.5333 75.7952H50.6667V84.253H40.5333V75.7952Z" fill="white"/>
<path d="M40.5333 84.253H50.6667V92.7108H40.5333V84.253Z" fill="white"/>
<path d="M40.5333 84.253H50.6667V92.7108H40.5333V84.253Z" fill="white"/>
<path d="M40.5333 92.7108H50.6667V101.169H40.5333V92.7108Z" fill="white"/>
<path d="M40.5333 92.7108H50.6667V101.169H40.5333V92.7108Z" fill="white"/>
<path d="M40.5333 101.169H50.6667V109.627H40.5333V101.169Z" fill="white"/>
<path d="M40.5333 101.169H50.6667V109.627H40.5333V101.169Z" fill="white"/>
<path d="M30.4 101.169H40.5333V109.627H30.4V101.169Z" fill="white"/>
<path d="M30.4 101.169H40.5333V109.627H30.4V101.169Z" fill="white"/>
<path d="M30.4 109.627H40.5333V118.084H30.4V109.627Z" fill="white"/>
<path d="M30.4 109.627H40.5333V118.084H30.4V109.627Z" fill="white"/>
</svg>
