<svg width="19" height="30" viewBox="0 0 19 30" fill="none" xmlns="http://www.w3.org/2000/svg">
<rect x="8.63637" y="19.2647" width="1.72727" height="1.70588" fill="#FB8989"/>
<rect x="8.63637" y="20.9706" width="1.72727" height="1.70588" fill="#FB8989"/>
<rect x="8.63637" y="22.6765" width="1.72727" height="1.70588" fill="#FB8989"/>
<rect x="8.63637" y="24.3824" width="1.72727" height="1.70588" fill="#FB8989"/>
<rect x="6.90909" y="24.3824" width="1.72727" height="1.70588" fill="#FB8989"/>
<rect x="10.3636" y="24.3824" width="1.72727" height="1.70588" fill="#FB8989"/>
<rect x="8.63637" y="26.0882" width="1.72727" height="1.70588" fill="#FB8989"/>
<rect x="8.63637" y="27.7941" width="1.72727" height="1.70588" fill="#FB8989"/>
<rect x="17.2727" y="5.61765" width="1.72727" height="1.70588" fill="#FB8989"/>
<rect x="1.72727" y="14.1471" width="1.72727" height="1.70588" fill="#FB8989"/>
<rect x="3.45454" y="15.8529" width="1.72727" height="1.70588" fill="#FB8989"/>
<rect x="5.18182" y="17.5588" width="1.72727" height="1.70588" fill="#FB8989"/>
<rect x="6.90909" y="17.5588" width="1.72727" height="1.70588" fill="#FB8989"/>
<rect x="8.63637" y="17.5588" width="1.72727" height="1.70588" fill="#FB8989"/>
<rect x="10.3636" y="17.5588" width="1.72727" height="1.70588" fill="#FB8989"/>
<rect x="12.0909" y="17.5588" width="1.72727" height="1.70588" fill="#FB8989"/>
<rect x="13.8182" y="15.8529" width="1.72727" height="1.70588" fill="#FB8989"/>
<rect x="16" y="14" width="1.72727" height="1.70588" fill="#FB8989"/>
<rect x="17.2727" y="12.4412" width="1.72727" height="1.70588" fill="#FB8989"/>
<rect x="17.2727" y="10.7353" width="1.72727" height="1.70588" fill="#FB8989"/>
<rect x="17.2727" y="9.02941" width="1.72727" height="1.70588" fill="#FB8989"/>
<rect x="17.2727" y="7.32353" width="1.72727" height="1.70588" fill="#FB8989"/>
<rect x="15.5455" y="3.91176" width="1.72727" height="1.70588" fill="#FB8989"/>
<rect y="7.32353" width="1.72727" height="1.70588" fill="#FB8989"/>
<rect y="9.02941" width="1.72727" height="1.70588" fill="#FB8989"/>
<rect y="10.7353" width="1.72727" height="1.70588" fill="#FB8989"/>
<rect y="12.4412" width="1.72727" height="1.70588" fill="#FB8989"/>
<rect x="6.90909" y="0.5" width="1.72727" height="1.70588" fill="#FB8989"/>
<rect x="8.63637" y="0.5" width="1.72727" height="1.70588" fill="#FB8989"/>
<rect x="10.3636" y="0.5" width="1.72727" height="1.70588" fill="#FB8989"/>
<rect x="12.0909" y="0.5" width="1.72727" height="1.70588" fill="#FB8989"/>
<rect x="13.8182" y="2.20588" width="1.72727" height="1.70588" fill="#FB8989"/>
<rect x="3.45454" y="2.20588" width="1.72727" height="1.70588" fill="#FB8989"/>
<rect x="1.72727" y="3.91176" width="1.72727" height="1.70588" fill="#FB8989"/>
<rect y="5.61765" width="1.72727" height="1.70588" fill="#FB8989"/>
<rect x="5.18182" y="0.5" width="1.72727" height="1.70588" fill="#FB8989"/>
</svg>
