<svg width="27" height="29" viewBox="0 0 27 29" fill="none" xmlns="http://www.w3.org/2000/svg">
<rect y="13.3846" width="2.23077" height="2.23077" fill="#59B4FF"/>
<rect x="24.5385" y="4.46153" width="2.23077" height="2.23077" fill="#59B4FF"/>
<rect x="20.0769" width="2.23077" height="2.23077" fill="#59B4FF"/>
<rect x="22.3077" width="2.23077" height="2.23077" fill="#59B4FF"/>
<rect x="24.5385" y="2.23077" width="2.23077" height="2.23077" fill="#59B4FF"/>
<rect x="24.5385" width="2.23077" height="2.23077" fill="#59B4FF"/>
<rect x="22.3077" y="2.23077" width="2.23077" height="2.23077" fill="#59B4FF"/>
<rect x="20.0769" y="4.46153" width="2.23077" height="2.23077" fill="#59B4FF"/>
<rect x="17.8462" y="6.69231" width="2.23077" height="2.23077" fill="#59B4FF"/>
<rect x="13.3846" y="24.5385" width="2.23077" height="2.23077" fill="#59B4FF"/>
<rect x="15.6154" y="22.3077" width="2.23077" height="2.23077" fill="#59B4FF"/>
<rect x="11.1538" y="26.7692" width="2.23077" height="2.23077" fill="#59B4FF"/>
<rect x="8.92308" y="26.7692" width="2.23077" height="2.23077" fill="#59B4FF"/>
<rect x="6.69231" y="26.7692" width="2.23077" height="2.23077" fill="#59B4FF"/>
<rect x="4.46154" y="24.5385" width="2.23077" height="2.23077" fill="#59B4FF"/>
<rect x="2.23077" y="22.3077" width="2.23077" height="2.23077" fill="#59B4FF"/>
<rect x="17.8462" y="20.0769" width="2.23077" height="2.23077" fill="#59B4FF"/>
<rect y="20.0769" width="2.23077" height="2.23077" fill="#59B4FF"/>
<rect x="17.8462" y="17.8462" width="2.23077" height="2.23077" fill="#59B4FF"/>
<rect y="17.8462" width="2.23077" height="2.23077" fill="#59B4FF"/>
<rect x="17.8462" y="15.6154" width="2.23077" height="2.23077" fill="#59B4FF"/>
<rect y="15.6154" width="2.23077" height="2.23077" fill="#59B4FF"/>
<rect x="17.8462" y="13.3846" width="2.23077" height="2.23077" fill="#59B4FF"/>
<rect x="15.6154" y="11.1538" width="2.23077" height="2.23077" fill="#59B4FF"/>
<rect x="15.6154" y="8.92308" width="2.23077" height="2.23077" fill="#59B4FF"/>
<rect x="13.3846" y="8.92308" width="2.23077" height="2.23077" fill="#59B4FF"/>
<rect x="11.1538" y="6.69231" width="2.23077" height="2.23077" fill="#59B4FF"/>
<rect x="8.92308" y="6.69231" width="2.23077" height="2.23077" fill="#59B4FF"/>
<rect x="6.69231" y="6.69231" width="2.23077" height="2.23077" fill="#59B4FF"/>
<rect x="4.46154" y="8.92308" width="2.23077" height="2.23077" fill="#59B4FF"/>
<rect x="2.23077" y="11.1538" width="2.23077" height="2.23077" fill="#59B4FF"/>
</svg>
