<svg width="578" height="170" viewBox="0 0 578 170" fill="none" xmlns="http://www.w3.org/2000/svg">
<path d="M159.867 130.875H179.733V143.916H159.867V130.875Z" fill="black"/>
<path d="M159.867 130.875H179.733V143.916H159.867V130.875Z" fill="black"/>
<path d="M179.733 130.875H199.6V143.916H179.733V130.875Z" fill="black"/>
<path d="M179.733 130.875H199.6V143.916H179.733V130.875Z" fill="black"/>
<path d="M199.6 130.875H219.467V143.916H199.6V130.875Z" fill="black"/>
<path d="M199.6 130.875H219.467V143.916H199.6V130.875Z" fill="black"/>
<path d="M338.667 130.875H358.533V143.916H338.667V130.875Z" fill="black"/>
<path d="M338.667 130.875H358.533V143.916H338.667V130.875Z" fill="black"/>
<path d="M318.8 130.875H338.667V143.916H318.8V130.875Z" fill="black"/>
<path d="M318.8 130.875H338.667V143.916H318.8V130.875Z" fill="black"/>
<path d="M358.533 130.875H378.4V143.916H358.533V130.875Z" fill="black"/>
<path d="M358.533 130.875H378.4V143.916H358.533V130.875Z" fill="black"/>
<path d="M378.4 130.875H398.267V143.916H378.4V130.875Z" fill="black"/>
<path d="M378.4 130.875H398.267V143.916H378.4V130.875Z" fill="black"/>
<path d="M398.267 130.875H418.133V143.916H398.267V130.875Z" fill="black"/>
<path d="M398.267 130.875H418.133V143.916H398.267V130.875Z" fill="black"/>
<path d="M219.467 130.875H239.333V143.916H219.467V130.875Z" fill="black"/>
<path d="M219.467 130.875H239.333V143.916H219.467V130.875Z" fill="black"/>
<path d="M239.333 130.875H259.2V143.916H239.333V130.875Z" fill="black"/>
<path d="M239.333 130.875H259.2V143.916H239.333V130.875Z" fill="black"/>
<path d="M259.2 143.916H279.067L279.067 156.958H259.2V143.916Z" fill="black"/>
<path d="M259.2 143.916H279.067L279.067 156.958H259.2V143.916Z" fill="black"/>
<path d="M298.933 143.916H318.8V156.958H298.933V143.916Z" fill="black"/>
<path d="M298.933 143.916H318.8V156.958H298.933V143.916Z" fill="black"/>
<path d="M279.067 156.958H298.933V170H279.067L279.067 156.958Z" fill="black"/>
<path d="M279.067 156.958H298.933V170H279.067L279.067 156.958Z" fill="black"/>
<path d="M298.933 130.875H318.8V143.916H298.933V130.875Z" fill="#FEF9F9"/>
<path d="M298.933 130.875H318.8V143.916H298.933V130.875Z" fill="#FFFCFC"/>
<path d="M279.067 130.875H298.933V143.916H279.067L279.067 130.875Z" fill="#FEF9F9"/>
<path d="M279.067 130.875H298.933V143.916H279.067L279.067 130.875Z" fill="white"/>
<path d="M279.067 143.916H298.933V156.958H279.067L279.067 143.916Z" fill="#FEF9F9"/>
<path d="M279.067 143.916H298.933V156.958H279.067L279.067 143.916Z" fill="white"/>
<path d="M259.2 130.875H279.067L279.067 143.916H259.2V130.875Z" fill="#FEF9F9"/>
<path d="M259.2 130.875H279.067L279.067 143.916H259.2V130.875Z" fill="white"/>
<path d="M418.133 130.875H438V143.916H418.133V130.875Z" fill="black"/>
<path d="M418.133 130.875H438V143.916H418.133V130.875Z" fill="black"/>
<path d="M438 130.875H457.867V143.916H438V130.875Z" fill="black"/>
<path d="M438 130.875H457.867V143.916H438V130.875Z" fill="black"/>
<path d="M457.867 130.875H477.733V143.916H457.867V130.875Z" fill="black"/>
<path d="M457.867 130.875H477.733V143.916H457.867V130.875Z" fill="black"/>
<path d="M477.733 130.875H497.6V143.916H477.733V130.875Z" fill="black"/>
<path d="M477.733 130.875H497.6V143.916H477.733V130.875Z" fill="black"/>
<path d="M497.6 130.875H517.467V143.916H497.6V130.875Z" fill="black"/>
<path d="M497.6 130.875H517.467V143.916H497.6V130.875Z" fill="black"/>
<path d="M517.467 130.875H537.333V143.916H517.467V130.875Z" fill="black"/>
<path d="M517.467 130.875H537.333V143.916H517.467V130.875Z" fill="black"/>
<path d="M537.333 130.875H557.2V143.916H537.333V130.875Z" fill="black"/>
<path d="M537.333 130.875H557.2V143.916H537.333V130.875Z" fill="black"/>
<path d="M557.2 117.833H577.067V130.875H557.2V117.833Z" fill="black"/>
<path d="M557.2 117.833H577.067V130.875H557.2V117.833Z" fill="black"/>
<path d="M557.2 104.791H577.067V117.833H557.2V104.791Z" fill="black"/>
<path d="M557.2 104.791H577.067V117.833H557.2V104.791Z" fill="black"/>
<path d="M557.2 91.7492H577.067V104.791H557.2V91.7492Z" fill="black"/>
<path d="M557.2 91.7492H577.067V104.791H557.2V91.7492Z" fill="black"/>
<path d="M557.2 78.7074H577.067V91.7492H557.2V78.7074Z" fill="black"/>
<path d="M557.2 78.7074H577.067V91.7492H557.2V78.7074Z" fill="black"/>
<path d="M557.2 65.6656H577.067V78.7074H557.2V65.6656Z" fill="black"/>
<path d="M557.2 65.6656H577.067V78.7074H557.2V65.6656Z" fill="black"/>
<path d="M557.2 52.6237H577.067V65.6656H557.2V52.6237Z" fill="black"/>
<path d="M557.2 52.6237H577.067V65.6656H557.2V52.6237Z" fill="black"/>
<path d="M557.2 39.5819H577.067V52.6237H557.2V39.5819Z" fill="black"/>
<path d="M557.2 39.5819H577.067V52.6237H557.2V39.5819Z" fill="black"/>
<path d="M557.2 26.5401H577.067V39.5819H557.2V26.5401Z" fill="black"/>
<path d="M557.2 26.5401H577.067V39.5819H557.2V26.5401Z" fill="black"/>
<path d="M557.2 13.4983H577.067V26.5401H557.2V13.4983Z" fill="black"/>
<path d="M557.2 13.4983H577.067V26.5401H557.2V13.4983Z" fill="black"/>
<path d="M537.333 0.456497H557.2V13.4983H537.333V0.456497Z" fill="black"/>
<path d="M537.333 0.456497H557.2V13.4983H537.333V0.456497Z" fill="black"/>
<path d="M517.467 0.456497H537.333V13.4983H517.467V0.456497Z" fill="black"/>
<path d="M517.467 0.456497H537.333V13.4983H517.467V0.456497Z" fill="black"/>
<path d="M497.6 0.456497H517.467V13.4983H497.6V0.456497Z" fill="black"/>
<path d="M497.6 0.456497H517.467V13.4983H497.6V0.456497Z" fill="black"/>
<path d="M477.733 0.456497H497.6V13.4983H477.733V0.456497Z" fill="black"/>
<path d="M477.733 0.456497H497.6V13.4983H477.733V0.456497Z" fill="black"/>
<path d="M457.867 0.456497H477.733V13.4983H457.867V0.456497Z" fill="black"/>
<path d="M457.867 0.456497H477.733V13.4983H457.867V0.456497Z" fill="black"/>
<path d="M438 0.456497H457.867V13.4983H438V0.456497Z" fill="black"/>
<path d="M438 0.456497H457.867V13.4983H438V0.456497Z" fill="black"/>
<path d="M418.133 0.456497H438V13.4983H418.133V0.456497Z" fill="black"/>
<path d="M418.133 0.456497H438V13.4983H418.133V0.456497Z" fill="black"/>
<path d="M398.267 0.456497H418.133V13.4983H398.267V0.456497Z" fill="black"/>
<path d="M398.267 0.456497H418.133V13.4983H398.267V0.456497Z" fill="black"/>
<path d="M378.4 0.456497H398.267V13.4983H378.4V0.456497Z" fill="black"/>
<path d="M378.4 0.456497H398.267V13.4983H378.4V0.456497Z" fill="black"/>
<path d="M358.533 0.456497H378.4V13.4983H358.533V0.456497Z" fill="black"/>
<path d="M358.533 0.456497H378.4V13.4983H358.533V0.456497Z" fill="black"/>
<path d="M338.667 0.456497H358.533V13.4983H338.667V0.456497Z" fill="black"/>
<path d="M338.667 0.456497H358.533V13.4983H338.667V0.456497Z" fill="black"/>
<path d="M318.8 0.456497H338.667V13.4983H318.8V0.456497Z" fill="black"/>
<path d="M318.8 0.456497H338.667V13.4983H318.8V0.456497Z" fill="black"/>
<path d="M298.933 0.456497H318.8V13.4983H298.933V0.456497Z" fill="black"/>
<path d="M298.933 0.456497H318.8V13.4983H298.933V0.456497Z" fill="black"/>
<path d="M279.066 0.456497H298.933V13.4983H279.066V0.456497Z" fill="black"/>
<path d="M279.066 0.456497H298.933V13.4983H279.066V0.456497Z" fill="black"/>
<path d="M259.2 0.456497H279.066V13.4983H259.2V0.456497Z" fill="black"/>
<path d="M259.2 0.456497H279.066V13.4983H259.2V0.456497Z" fill="black"/>
<path d="M239.333 0.456497H259.2V13.4983H239.333V0.456497Z" fill="black"/>
<path d="M239.333 0.456497H259.2V13.4983H239.333V0.456497Z" fill="black"/>
<path d="M219.466 0.456497H239.333V13.4983H219.466V0.456497Z" fill="black"/>
<path d="M219.466 0.456497H239.333V13.4983H219.466V0.456497Z" fill="black"/>
<path d="M199.6 0.456497H219.466V13.4983H199.6V0.456497Z" fill="black"/>
<path d="M199.6 0.456497H219.466V13.4983H199.6V0.456497Z" fill="black"/>
<path d="M179.733 0.456497H199.6V13.4983H179.733V0.456497Z" fill="black"/>
<path d="M179.733 0.456497H199.6V13.4983H179.733V0.456497Z" fill="black"/>
<path d="M159.866 0.456497H179.733V13.4983H159.866V0.456497Z" fill="black"/>
<path d="M159.866 0.456497H179.733V13.4983H159.866V0.456497Z" fill="black"/>
<path d="M140 0.456497H159.866V13.4983H140V0.456497Z" fill="black"/>
<path d="M140 0.456497H159.866V13.4983H140V0.456497Z" fill="black"/>
<path d="M120.133 0.456497H140V13.4983H120.133V0.456497Z" fill="black"/>
<path d="M120.133 0.456497H140V13.4983H120.133V0.456497Z" fill="black"/>
<path d="M100.266 0.456497H120.133V13.4983H100.266V0.456497Z" fill="black"/>
<path d="M100.266 0.456497H120.133V13.4983H100.266V0.456497Z" fill="black"/>
<path d="M80.3994 0.456497H100.266V13.4983H80.3994V0.456497Z" fill="black"/>
<path d="M80.3994 0.456497H100.266V13.4983H80.3994V0.456497Z" fill="black"/>
<path d="M60.5327 0.456497H80.3994V13.4983H60.5327V0.456497Z" fill="black"/>
<path d="M60.5327 0.456497H80.3994V13.4983H60.5327V0.456497Z" fill="black"/>
<path d="M40.6661 0.456497H60.5327V13.4983H40.6661V0.456497Z" fill="black"/>
<path d="M40.6661 0.456497H60.5327V13.4983H40.6661V0.456497Z" fill="black"/>
<path d="M20.7994 0.456497H40.6661V13.4983H20.7994V0.456497Z" fill="black"/>
<path d="M20.7994 0.456497H40.6661V13.4983H20.7994V0.456497Z" fill="black"/>
<path d="M0.932617 13.4983H20.7994L20.7993 26.5401H0.932617V13.4983Z" fill="black"/>
<path d="M0.932617 13.4983H20.7994L20.7993 26.5401H0.932617V13.4983Z" fill="black"/>
<path d="M0.932617 26.5401H20.7993V39.5819H0.932617V26.5401Z" fill="black"/>
<path d="M0.932617 26.5401H20.7993V39.5819H0.932617V26.5401Z" fill="black"/>
<path d="M0.932617 39.5819H20.7993L20.7994 52.6237H0.932709L0.932617 39.5819Z" fill="black"/>
<path d="M0.932617 39.5819H20.7993L20.7994 52.6237H0.932709L0.932617 39.5819Z" fill="black"/>
<path d="M0.932709 52.6237H20.7994V65.6655H0.932709V52.6237Z" fill="black"/>
<path d="M0.932709 52.6237H20.7994V65.6655H0.932709V52.6237Z" fill="black"/>
<path d="M0.932709 65.6655H20.7994V78.7074H0.932709V65.6655Z" fill="black"/>
<path d="M0.932709 65.6655H20.7994V78.7074H0.932709V65.6655Z" fill="black"/>
<path d="M0.932709 78.7074H20.7994V91.7492H0.932709V78.7074Z" fill="black"/>
<path d="M0.932709 78.7074H20.7994V91.7492H0.932709V78.7074Z" fill="black"/>
<path d="M0.932709 91.7492H20.7994V104.791H0.932709V91.7492Z" fill="black"/>
<path d="M0.932709 91.7492H20.7994V104.791H0.932709V91.7492Z" fill="black"/>
<path d="M0.932709 104.791H20.7994V117.833H0.932709V104.791Z" fill="black"/>
<path d="M0.932709 104.791H20.7994V117.833H0.932709V104.791Z" fill="black"/>
<path d="M140 130.875H159.867V143.916H140V130.875Z" fill="black"/>
<path d="M140 130.875H159.867V143.916H140V130.875Z" fill="black"/>
<path d="M120.133 130.875H140V143.916H120.133V130.875Z" fill="black"/>
<path d="M120.133 130.875H140V143.916H120.133V130.875Z" fill="black"/>
<path d="M100.267 130.875H120.133V143.916H100.267V130.875Z" fill="black"/>
<path d="M100.267 130.875H120.133V143.916H100.267V130.875Z" fill="black"/>
<path d="M80.3998 130.875H100.267V143.916H80.3998V130.875Z" fill="black"/>
<path d="M80.3998 130.875H100.267V143.916H80.3998V130.875Z" fill="black"/>
<path d="M60.5331 130.875H80.3998V143.916H60.5331V130.875Z" fill="black"/>
<path d="M60.5331 130.875H80.3998V143.916H60.5331V130.875Z" fill="black"/>
<path d="M40.6664 130.875H60.5331V143.916H40.6664V130.875Z" fill="black"/>
<path d="M40.6664 130.875H60.5331V143.916H40.6664V130.875Z" fill="black"/>
<path d="M20.7997 130.875H40.6664V143.916H20.7997V130.875Z" fill="black"/>
<path d="M20.7997 130.875H40.6664V143.916H20.7997V130.875Z" fill="black"/>
<path d="M0.932709 117.833H20.7994L20.7997 130.875H0.933014L0.932709 117.833Z" fill="black"/>
<path d="M0.932709 117.833H20.7994L20.7997 130.875H0.933014L0.932709 117.833Z" fill="black"/>
</svg>
