<svg width="298" height="156" viewBox="0 0 298 156" fill="none" xmlns="http://www.w3.org/2000/svg">
<path d="M19.8667 0H39.7333V13.0418H19.8667V0Z" fill="black"/>
<path d="M0 13.0418H19.8667V26.0836H0V13.0418Z" fill="black"/>
<path d="M19.8667 0H39.7333V13.0418H19.8667V0Z" fill="black"/>
<path d="M0 25.582H19.8667V38.6238H0V25.582Z" fill="black"/>
<path d="M0 25.582H19.8667V38.6238H0V25.582Z" fill="black"/>
<path d="M0 38.6238H19.8667V51.6656H0V38.6238Z" fill="black"/>
<path d="M0 38.6238H19.8667V51.6656H0V38.6238Z" fill="black"/>
<path d="M0 51.6656H19.8667V64.7074H0V51.6656Z" fill="black"/>
<path d="M0 51.6656H19.8667V64.7074H0V51.6656Z" fill="black"/>
<path d="M0 64.7074H19.8667V77.7492H0V64.7074Z" fill="black"/>
<path d="M0 64.7074H19.8667V77.7492H0V64.7074Z" fill="black"/>
<path d="M0 77.7492H19.8667V90.791H0V77.7492Z" fill="black"/>
<path d="M0 77.7492H19.8667V90.791H0V77.7492Z" fill="black"/>
<path d="M0 90.791H19.8667V103.833H0V90.791Z" fill="black"/>
<path d="M0 90.791H19.8667V103.833H0V90.791Z" fill="black"/>
<path d="M0 103.833H19.8667V116.875H0V103.833Z" fill="black"/>
<path d="M0 103.833H19.8667V116.875H0V103.833Z" fill="black"/>
<path d="M19.8667 116.875H39.7333V129.916H19.8667V116.875Z" fill="black"/>
<path d="M19.8667 116.875H39.7333V129.916H19.8667V116.875Z" fill="black"/>
<path d="M39.7333 116.875H59.6V129.916H39.7333V116.875Z" fill="black"/>
<path d="M39.7333 116.875H59.6V129.916H39.7333V116.875Z" fill="black"/>
<path d="M59.6 116.875H79.4667V129.916H59.6V116.875Z" fill="black"/>
<path d="M59.6 116.875H79.4667V129.916H59.6V116.875Z" fill="black"/>
<path d="M198.667 116.875H218.533V129.916H198.667V116.875Z" fill="black"/>
<path d="M198.667 116.875H218.533V129.916H198.667V116.875Z" fill="black"/>
<path d="M178.8 116.875H198.667V129.916H178.8V116.875Z" fill="black"/>
<path d="M178.8 116.875H198.667V129.916H178.8V116.875Z" fill="black"/>
<path d="M218.533 116.875H238.4V129.916H218.533V116.875Z" fill="black"/>
<path d="M218.533 116.875H238.4V129.916H218.533V116.875Z" fill="black"/>
<path d="M238.4 116.875H258.267V129.916H238.4V116.875Z" fill="black"/>
<path d="M238.4 116.875H258.267V129.916H238.4V116.875Z" fill="black"/>
<path d="M258.267 116.875H278.133V129.916H258.267V116.875Z" fill="black"/>
<path d="M258.267 116.875H278.133V129.916H258.267V116.875Z" fill="black"/>
<path d="M278.133 103.833H298V116.875H278.133V103.833Z" fill="black"/>
<path d="M278.133 103.833H298V116.875H278.133V103.833Z" fill="black"/>
<path d="M278.133 90.791H298V103.833H278.133V90.791Z" fill="black"/>
<path d="M278.133 90.791H298V103.833H278.133V90.791Z" fill="black"/>
<path d="M278.133 77.7492H298V90.791H278.133V77.7492Z" fill="black"/>
<path d="M278.133 77.7492H298V90.791H278.133V77.7492Z" fill="black"/>
<path d="M278.133 64.7074H298V77.7492H278.133V64.7074Z" fill="black"/>
<path d="M278.133 64.7074H298V77.7492H278.133V64.7074Z" fill="black"/>
<path d="M278.133 51.6656H298V64.7074H278.133V51.6656Z" fill="black"/>
<path d="M278.133 51.6656H298V64.7074H278.133V51.6656Z" fill="black"/>
<path d="M278.133 38.6238H298V51.6656H278.133V38.6238Z" fill="black"/>
<path d="M278.133 38.6238H298V51.6656H278.133V38.6238Z" fill="black"/>
<path d="M278.133 25.582H298V38.6238H278.133V25.582Z" fill="black"/>
<path d="M278.133 25.582H298V38.6238H278.133V25.582Z" fill="black"/>
<path d="M278.133 12.5402H298V25.582H278.133V12.5402Z" fill="black"/>
<path d="M278.133 12.5402H298V25.582H278.133V12.5402Z" fill="black"/>
<path d="M258.267 0H278.133V13.0418H258.267V0Z" fill="black"/>
<path d="M258.267 0H278.133V13.0418H258.267V0Z" fill="black"/>
<path d="M238.4 0H258.267V13.0418H238.4V0Z" fill="black"/>
<path d="M238.4 0H258.267V13.0418H238.4V0Z" fill="black"/>
<path d="M218.533 0H238.4V13.0418H218.533V0Z" fill="black"/>
<path d="M218.533 0H238.4V13.0418H218.533V0Z" fill="black"/>
<path d="M198.667 0H218.533V13.0418H198.667V0Z" fill="black"/>
<path d="M198.667 0H218.533V13.0418H198.667V0Z" fill="black"/>
<path d="M178.8 0H198.667V13.0418H178.8V0Z" fill="black"/>
<path d="M178.8 0H198.667V13.0418H178.8V0Z" fill="black"/>
<path d="M158.933 0H178.8V13.0418H158.933V0Z" fill="black"/>
<path d="M158.933 0H178.8V13.0418H158.933V0Z" fill="black"/>
<path d="M139.067 0H158.933V13.0418H139.067V0Z" fill="black"/>
<path d="M139.067 0H158.933V13.0418H139.067V0Z" fill="black"/>
<path d="M119.2 0H139.067V13.0418H119.2V0Z" fill="black"/>
<path d="M119.2 0H139.067V13.0418H119.2V0Z" fill="black"/>
<path d="M99.3333 0H119.2V13.0418H99.3333V0Z" fill="black"/>
<path d="M99.3333 0H119.2V13.0418H99.3333V0Z" fill="black"/>
<path d="M79.4667 0H99.3333V13.0418H79.4667V0Z" fill="black"/>
<path d="M79.4667 0H99.3333V13.0418H79.4667V0Z" fill="black"/>
<path d="M59.6 0H79.4667V13.0418H59.6V0Z" fill="black"/>
<path d="M59.6 0H79.4667V13.0418H59.6V0Z" fill="black"/>
<path d="M39.7333 0H59.6V13.0418H39.7333V0Z" fill="black"/>
<path d="M39.7333 0H59.6V13.0418H39.7333V0Z" fill="black"/>
<path d="M278.133 103.833H298V116.875H278.133V103.833Z" fill="black"/>
<path d="M278.133 103.833H298V116.875H278.133V103.833Z" fill="black"/>
<path d="M79.4667 116.875H99.3333V129.916H79.4667V116.875Z" fill="black"/>
<path d="M79.4667 116.875H99.3333V129.916H79.4667V116.875Z" fill="black"/>
<path d="M99.3333 116.875H119.2V129.916H99.3333V116.875Z" fill="black"/>
<path d="M99.3333 116.875H119.2V129.916H99.3333V116.875Z" fill="black"/>
<path d="M119.2 129.916H139.067L139.067 142.958H119.2V129.916Z" fill="black"/>
<path d="M119.2 129.916H139.067L139.067 142.958H119.2V129.916Z" fill="black"/>
<path d="M158.933 129.916H178.8V142.958H158.933V129.916Z" fill="black"/>
<path d="M158.933 129.916H178.8V142.958H158.933V129.916Z" fill="black"/>
<path d="M139.067 142.958H158.933V156H139.067L139.067 142.958Z" fill="black"/>
<path d="M139.067 142.958H158.933V156H139.067L139.067 142.958Z" fill="black"/>
<path d="M158.933 116.875H178.8V129.916H158.933V116.875Z" fill="#FEF9F9"/>
<path d="M158.933 116.875H178.8V129.916H158.933V116.875Z" fill="#FFFCFC"/>
<path d="M139.067 116.875H158.933V129.916H139.067L139.067 116.875Z" fill="#FEF9F9"/>
<path d="M139.067 116.875H158.933V129.916H139.067L139.067 116.875Z" fill="white"/>
<path d="M139.067 129.916H158.933V142.958H139.067L139.067 129.916Z" fill="#FEF9F9"/>
<path d="M139.067 129.916H158.933V142.958H139.067L139.067 129.916Z" fill="white"/>
<path d="M119.2 116.875H139.067L139.067 129.916H119.2V116.875Z" fill="#FEF9F9"/>
<path d="M119.2 116.875H139.067L139.067 129.916H119.2V116.875Z" fill="white"/>
<path d="M20 13H278V118H149.5H20V13Z" fill="white"/>
</svg>
